<?xml version="1.0" encoding="utf-8"?>
<!-- Generator: Adobe Illustrator 27.6.1, SVG Export Plug-In . SVG Version: 6.00 Build 0)  -->
<svg version="1.1" id="Capa_1" xmlns="http://www.w3.org/2000/svg" xmlns:xlink="http://www.w3.org/1999/xlink" x="0px" y="0px"
	 viewBox="0 0 1600 1304.3" style="enable-background:new 0 0 1600 1304.3;" xml:space="preserve">
<style type="text/css">
	.st0{fill:#1A3861;}
</style>
<path class="st0" d="M1599.2,89.3c-1.9-7.2-5.2-13.3-9.7-18.1c-4.6-4.9-9.6-9.2-15.1-12.9c-21.3-13.6-43.7-23.7-67.4-30.2
	c-44.9-13.9-101.4-22.6-169.7-26.2c-68.3-3.5-144-2.1-227.1,4.3S940.7,23.7,851,39.6s-177.9,36.3-264.8,61.3s-168.1,54.3-243.8,87.9
	c-19.4,8.6-38.1,17.5-56.1,26.7c-36.6,14.5-71.5,33.7-104.6,57.7c-8,5.5-15.6,11.6-22.8,18.4c-1.5,1.4-2.9,2.8-4.3,4.3
	c-3.1,2.3-6.2,4.6-9.2,6.9c-55.7,42.3-96.7,88.6-123.1,138.9c-24.2,45-28.7,91.7-13.4,140.2c9.9,29.6,24.6,56.6,44.3,81.1
	c27.4,33.6,58.2,63.9,92.3,90.8c21.4,17,43,33.8,64.8,50.2c-0.3,0.7-0.6,1.5-0.9,2.2c-4.3,11.8-4.4,17.5-0.1,17.1
	c1.4,0.3,2.7,0.3,3.8,0.2c6.5,0.3,13,0.9,19.5,1.8c2.5,0.3,5,0.6,7.5,0.9c3.6,2.7,7.3,5.4,11,8.1c-6.2,16.8-13.9,37.4-23,62
	c-23.8,63.9-37.9,101.8-42.6,113.8c-10.4,29.9-20.7,59.7-30.9,89.4c-17.1,49.9-34.3,99.5-51.7,148.8c-4.9,14.5-9,29.1-12.2,43.6
	c-0.8,4-0.1,6.9,1.9,8.9c2.1,1.9,4.8,3.1,8.4,3.5c1.8,0.2,3.5,0,5.2-0.5c6.5,0.3,11.5-2.7,15.1-9.1c1-1.9,1.6-3.7,1.8-5.4
	c0.5-0.8,0.7-1.7,0.6-2.7c24.5-74.8,50.6-149.5,78.5-224c4.4-12.3,9-24.6,13.8-36.8c0.2-1.8,0.6-3.5,1.2-5.1
	c2.5-6.3,4.9-12.4,7.2-18.3c2-5.2,20.2-54.4,54.8-147.5c15.6,11.4,31.2,22.7,46.8,34.1c63.2,44.2,125.1,90.2,185.7,137.9
	c24.4,19.3,47.7,39.4,69.9,60.4c20.9,19.7,31,35.1,30.2,46.3c-0.8,11.2-8.5,19.5-23.2,24.9c-14.6,5.4-32.5,8.6-53.7,9.7
	c-21.1,1.1-41.7,1.2-61.8,0.5c-20.1-0.8-35.9-1.8-47.5-3.2c-2.5-0.1-4.7-0.1-6.4,0.1c-0.8-0.3-2.1-0.4-3.8-0.2
	c-9-0.4-22.7-1.6-41.1-3.5c-18.4-1.9-36.9-5.3-55.4-10.1c-18.5-4.8-32.6-11.6-42.3-20.2c-9.7-8.7-10.3-19.8-2-33.6
	c19.5-28.5,44.9-48.8,76.2-61s62.9-12.2,95-0.1c4.5,2.1,9.2,3.7,14.2,5c5.2,1.2,9.3-0.5,12.3-5.1c1.3-2.9,1.4-5.4,0.4-7.6
	s-2.6-3.8-4.9-4.8c-0.6-0.5-1.4-0.9-2.2-1.2c-8.2-4.2-16.7-7.4-25.5-9.7c-45.4-9.4-88.7-3.6-130,17.4c-28.6,13.6-52,33.2-70.3,58.6
	c-16.8,24.7-13.1,46.2,11,64.3c12,8.7,31.8,16.3,59.5,22.8s59,11.3,94.1,14.5c35.1,3.1,69.7,3.9,103.8,2.2
	c34.1-1.6,63.8-6.2,88.9-13.6c25.1-7.4,41.6-18.4,49.4-33c7.8-14.5,3-33.4-14.4-56.5c-16.7-20.1-35.5-38.1-56.4-53.8
	c-3.8-2.7-7.5-5.6-11.1-8.5c-38.8-30.7-78.1-61-118-90.8c-35.8-26.3-71.5-52.3-107.1-77.9c-10.9-7.9-21.8-15.9-32.7-23.9
	c42.1,5.6,84.2,11.4,126.1,17.6c170.7,27.1,340.3,57.2,508.7,90.2c245.6,46.7,358.4,63.1,338.4,49.1s-146.9-40.7-380.7-80.1
	c-169.2-31.2-314.5-56.3-435.9-75.2c-55.6-9.1-102.3-16.9-140.1-23.4c52.3-20.6,104.6-41.8,156.9-63.7
	c69.4-28.5,138.2-59.1,206.5-91.6c68.2-32.3,135.3-68,201.3-106.9c32-18.3,63.2-37.9,93.6-58.8c30.4-20.9,59.7-44,87.9-69.1
	c22.6-19.5,42.4-41.5,59.6-66c36.8-55.2,34-101.8-8.5-139.7c-19.2-16.5-41.1-29.3-65.6-38.3c-22.4-9-45.4-16.1-69.1-21.1
	c-23.7-5.1-47.7-9.1-72-12.1c-46.9-5.5-94.1-7.9-141.6-7.1s-95.2,3.2-143.3,7.4c-9.6,1-19.2,2-28.6,2.9l-1.2,0.1
	c-45.9,5.1-91.6,11.6-137.1,19.5c64.8-23.7,132.2-44.7,202.3-62.7c92.1-23.7,182.5-42.7,271.3-56.7c88.8-14.1,169.7-23.4,242.8-28.1
	c73.1-4.7,132-4.6,176.7,0.2c26.8,3.3,53.6,7.6,80.2,13c26.7,5.4,52.8,13.2,78.4,23.4c11.6,4.5,22.4,9.9,32.5,16.4
	s18.1,15.8,24.1,28.1c2.2,4.5,5.4,7.2,9.6,8.4c4.2,1.1,8.3,0.4,12.3-2.1C1599.1,103.7,1601.4,97.3,1599.2,89.3z M590.5,172.3
	c47.3-4.4,94.1-7.4,140.5-8.8c79.1-2.1,156.1,4.3,231.1,19c30.6,6.2,59.5,16.3,86.7,30.3c18,8.5,33.3,20.2,46,35
	c20.9,24.9,22.6,53.9,5.1,86.9c-8.6,16.5-19.2,31.5-31.6,45c-25,27.5-52.2,52-81.6,73.5c-35.2,25.8-71.2,49.7-108.2,71.7
	c-37,22-74.5,43.1-112.6,63.4c-61,32.4-122.7,62.4-185.3,90.3c-62.5,27.8-125.5,54.6-188.9,80.4c-22.6,9.1-45.3,18.3-67.9,27.4
	c-0.9,0.5-1.7,1.1-2.5,1.7c-2.1,0.6-4.2,1.2-6.2,1.8c-2.2-0.2-4-1.1-5.5-2.6c-1-1.7-1.2-3.6-0.7-5.8c0.5-2.2,1.2-4.4,2.1-6.6
	c0.3-0.8,0.7-1.7,1.2-2.8c2.3-6.1,4.6-12.1,6.9-18c6.2-16,12.5-31.9,19.1-47.5c12.8-32.7,25.9-65.3,39.4-97.8
	c26-63.6,51.6-127.4,76.9-191.1c7.6-18.9,14.2-37.8,19.9-56.7c1-3.2,2-6.3,2.8-9.4c1-4,0.1-7.3-2.5-9.8c-2.6-2.6-6-3.3-10.2-2.3
	c-1.8-0.4-3.5,0-5.1,1.1c-5.3,1.3-9.7,4.1-13.2,8.4c-4.1,5.5-7.4,11.6-9.8,18.2c-21.8,55-44.1,109.8-66.8,164.4
	c-35.5,83.5-68.9,167.6-100.1,252.2c-1.3,3.6-3.5,9.8-6.8,18.7c-0.2-0.1-0.5-0.1-0.7-0.2c-10.5-7.7-21-15.5-31.4-23.2
	c-42.6-29.9-82.1-63.6-118.5-101c-24.4-25-44.1-53.5-59-85.4c-21-46.8-20.4-93.3,1.8-139.6c22-44,55.7-84.7,101-122.1
	c1.3-0.3,2.6-0.8,4-1.7c5-2.7,9.2-6.3,12.6-10.9c0.4-0.5,0.9-1.1,1.4-1.6c4.1-3.1,8.2-6.1,12.4-9.1c41.4-29.6,87.9-56.9,139.5-81.8
	c24.2-8.8,48.5-16.1,73.1-21.9c38.3-9.1,76.7-16.5,115.1-22.2C539.5,178.1,565.1,174.9,590.5,172.3z"/>
</svg>
