<?xml version="1.0" encoding="utf-8"?>
<!-- Generator: Adobe Illustrator 27.6.1, SVG Export Plug-In . SVG Version: 6.00 Build 0)  -->
<svg version="1.1" id="Capa_1" xmlns="http://www.w3.org/2000/svg" xmlns:xlink="http://www.w3.org/1999/xlink" x="0px" y="0px"
	 viewBox="0 0 1600 1057.3" style="enable-background:new 0 0 1600 1057.3;" xml:space="preserve">
<g>
	<g>
		<path d="M41.5,674.6l1.4,4.9c-1.7,1.2-3.9,1.9-6.6,1.9c-2.3,0-4.4-0.5-6.3-1.6c-1.9-1.1-3.7-2.9-5.5-5.5l-10.8-15.9
			c-0.7-1-1.5-1.9-2.5-2.6s-2-1-3-1H6.3v26.1H0v-57.5h16.2c6.4,0,11.4,1.4,14.8,4.2c3.4,2.8,5.1,6.6,5.1,11.4c0,3.5-0.9,6.3-2.6,8.7
			c-1.7,2.3-4,4.1-6.8,5.3c-2.9,1.2-6,1.8-9.5,1.8h-0.5c1.5,0.8,3.1,2.3,4.6,4.6l7.5,11c1,1.6,1.9,2.8,2.7,3.6
			c0.8,0.8,1.6,1.4,2.4,1.7c0.8,0.3,1.9,0.4,3.1,0.4c0.8,0,1.6-0.1,2.3-0.4C40.2,675.3,40.8,675,41.5,674.6z M15.7,628.5H6.1v21.2
			h8.8c4.8,0,8.4-0.9,11-2.6s3.9-4.4,3.9-8.1c0-3.3-1.1-5.9-3.4-7.7C24.2,629.4,20.6,628.5,15.7,628.5z"/>
		<path d="M95.5,680.8l23.9-57.5h5.4l22.9,57.5h-6.3l-6-15.4h-27.3l-6.2,15.4H95.5z M110.3,660.1h23.2l-11.3-29.2L110.3,660.1z"/>
		<path d="M242.2,623.3l-20.7,31.5v26h-6.2v-25.9l-21-31.6h7.1l17.3,26.1l17-26.1H242.2z"/>
		<path d="M299.3,680.8l2.5-57.5h6.1l22.4,50l22.5-50h6.1l2.1,57.5h-5.8l-1.8-45.5l-20.7,45.5h-5.3l-20.3-45.4l-2,45.4H299.3z"/>
		<path d="M465.7,623.3h6.2l0.1,29.9c0,9.2-1.9,16.2-5.8,21c-3.9,4.8-9.7,7.3-17.5,7.3c-7.6,0-13.2-2-16.9-6.1s-5.6-10.4-5.6-19.1
			v-33h6.4V656c0,6.9,1.3,11.9,3.8,15.1c2.5,3.1,6.6,4.7,12.2,4.7c6,0,10.3-1.9,13-5.6s4-9.4,4-17.1L465.7,623.3z"/>
		<path d="M576.6,623.3h6v57.5h-5.3l-33.5-47v47h-6v-57.5h5.3l33.5,47V623.3z"/>
		<path d="M648.5,680.8v-57.5h14.6c22.3,0,33.4,9.5,33.4,28.4c0,6.1-1.2,11.3-3.7,15.6c-2.5,4.3-6.1,7.7-10.7,10
			c-4.6,2.3-10.2,3.5-16.7,3.5H648.5z M654.8,675.3h10.3c8.3,0,14.5-2,18.8-5.9c4.2-3.9,6.4-9.7,6.4-17.3c0-7.8-2.1-13.7-6.4-17.5
			c-4.3-3.9-10.8-5.8-19.7-5.8h-9.3L654.8,675.3L654.8,675.3z"/>
		<path d="M784.8,681.5c-5.3,0-10-1.1-13.9-3.4c-3.9-2.2-6.9-5.5-9-9.7s-3.2-9.3-3.2-15.3s1.2-11.3,3.5-15.9s5.6-8.2,9.7-10.8
			c4.1-2.6,8.9-3.9,14.4-3.9c5,0,9.4,1.2,13.2,3.6s6.8,5.7,8.9,9.9c2.1,4.2,3.2,9.2,3.2,15c0,6.2-1.2,11.6-3.5,16.2
			s-5.5,8.1-9.5,10.6C794.6,680.2,790,681.5,784.8,681.5z M784.8,675.7c4.1,0,7.6-1,10.7-3c3.1-2,5.4-4.8,7.2-8.5s2.6-8.2,2.6-13.5
			c0-4.6-0.8-8.6-2.3-12s-3.7-6-6.5-7.8s-6.1-2.8-10-2.8c-4.2,0-7.8,1-11.1,3.1c-3.2,2.1-5.7,5-7.5,8.7s-2.7,8.1-2.7,13
			c0,7.2,1.8,12.8,5.3,16.7C773.9,673.8,778.7,675.7,784.8,675.7z"/>
		<path d="M963.6,681.5c-12.7,0-19.8-5.9-21.1-17.7l5.8-0.8c0.8,4.6,2.4,7.9,4.9,9.9s6,3,10.7,3c4,0,7.1-0.9,9.4-2.7
			c2.2-1.8,3.4-4.3,3.4-7.5c0-2.1-0.5-3.7-1.4-4.9c-0.9-1.2-2.4-2.3-4.3-3c-1.9-0.8-4.3-1.5-7.3-2.1c-3.6-0.8-6.7-1.8-9.3-2.9
			c-2.6-1.1-4.7-2.8-6.2-4.9s-2.2-5-2.2-8.8c0-3.2,0.8-6,2.4-8.5s3.8-4.5,6.6-5.9c2.8-1.4,6-2.1,9.5-2.1c5,0,9,1.4,12.2,4.1
			s5,6.5,5.6,11.3l-5.4,1c-0.8-3.7-2.1-6.5-4.2-8.2c-2-1.7-4.8-2.6-8.4-2.6c-3.7,0-6.6,1-8.8,3c-2.2,2-3.3,4.6-3.3,7.9
			c0,3.5,1.1,6.1,3.4,7.6c2.3,1.6,5.7,2.8,10.4,3.8c3.6,0.8,6.6,1.7,9.1,2.8c2.5,1.1,4.4,2.6,5.8,4.6c1.3,2,2,4.6,2,8
			c0,3.1-0.8,5.9-2.5,8.3c-1.6,2.4-3.9,4.2-6.8,5.6C970.7,680.8,967.4,681.5,963.6,681.5z"/>
		<path d="M1037.9,680.8l23.9-57.5h5.4l22.9,57.5h-6.3l-6-15.4h-27.3l-6.2,15.4H1037.9z M1052.7,660.1h23.2l-11.3-29.2L1052.7,660.1
			z"/>
		<path d="M1150.8,680.8v-57.5h6.2v52.1h26.9l-0.6,5.4H1150.8z"/>
		<path d="M1237.8,680.8l23.9-57.5h5.4l22.9,57.5h-6.3l-6-15.4h-27.3l-6.2,15.4H1237.8z M1252.5,660.1h23.2l-11.3-29.2L1252.5,660.1
			z"/>
		<path d="M1346.4,680.8v-4.5l34.4-47.6h-33.1v-5.4h41.2v4.5l-34.4,47.6h35.3l-0.6,5.4H1346.4z"/>
		<path d="M1444.2,680.8l23.9-57.5h5.4l22.9,57.5h-6.3l-6-15.4h-27.3l-6.2,15.4H1444.2z M1459,660.1h23.2l-11.3-29.2L1459,660.1z"/>
		<path d="M1598.6,674.6l1.4,4.9c-1.7,1.2-3.9,1.9-6.6,1.9c-2.3,0-4.4-0.5-6.3-1.6s-3.7-2.9-5.5-5.5l-10.8-15.9
			c-0.7-1-1.5-1.9-2.5-2.6s-2-1-3-1h-1.9v26.1h-6.2v-57.5h16.2c6.4,0,11.4,1.4,14.8,4.2c3.4,2.8,5.1,6.6,5.1,11.4
			c0,3.5-0.8,6.3-2.6,8.7c-1.7,2.3-4,4.1-6.8,5.3c-2.9,1.2-6,1.8-9.5,1.8h-0.5c1.5,0.8,3.1,2.3,4.6,4.6l7.5,11
			c1,1.6,1.9,2.8,2.7,3.6c0.8,0.8,1.6,1.4,2.4,1.7c0.8,0.3,1.9,0.4,3.1,0.4c0.8,0,1.6-0.1,2.3-0.4
			C1597.3,675.3,1598,675,1598.6,674.6z M1572.9,628.5h-9.6v21.2h8.8c4.8,0,8.4-0.9,11-2.6s3.9-4.4,3.9-8.1c0-3.3-1.1-5.9-3.4-7.7
			C1581.4,629.4,1577.8,628.5,1572.9,628.5z"/>
	</g>
	<g>
		<path d="M341.7,711.9c-1.7,4.6-3.5,9.5-5.4,14.6c-19.3,51.8-30.8,82.5-34.5,92.2c-8.4,24.2-16.8,48.4-25,72.4
			c-13.9,40.4-27.8,80.6-41.9,120.6c-4,11.8-7.3,23.6-9.9,35.4c-0.6,3.2-0.1,5.6,1.6,7.2s3.9,2.5,6.8,2.9c1.4,0.2,2.8,0,4.2-0.4
			c5.2,0.3,9.3-2.2,12.3-7.4c0.8-1.5,1.3-3,1.4-4.4c0.4-0.7,0.6-1.4,0.5-2.2c19.8-60.6,41.1-121.1,63.6-181.6
			c3.6-10,7.3-19.9,11.2-29.8c0.2-1.4,0.5-2.8,1-4.1c2-5.1,3.9-10,5.8-14.8c1.5-3.9,13.9-37.4,37.4-100.5L341.7,711.9L341.7,711.9z"
			/>
		<path d="M538.3,285c0.8-3.2,0.1-5.9-2-8s-4.9-2.7-8.2-1.9c-1.5-0.3-2.8,0-4.2,0.9c-4.3,1.1-7.9,3.3-10.7,6.8
			c-3.3,4.4-6,9.4-8,14.8c-17.7,44.6-35.7,89-54.1,133.2C428.4,484.2,406.8,538,386.2,592h31.5c2.6-6.5,5.2-12.9,7.9-19.3
			c10.4-26.5,21-52.9,31.9-79.3c21.1-51.6,41.9-103.2,62.3-154.9c6.2-15.3,11.5-30.6,16.1-45.9C536.8,290,537.6,287.4,538.3,285z"/>
		<path d="M1447.7,72.4c-1.5-5.8-4.2-10.7-7.9-14.7c-3.7-4-7.8-7.5-12.2-10.5c-17.2-11-35.4-19.2-54.6-24.5
			c-36.4-11.3-82.2-18.3-137.5-21.2c-55.3-2.9-116.7-1.7-184.1,3.5S914,19.2,841.3,32.1S697.1,61.6,626.7,81.8
			c-70.4,20.2-136.3,44-197.6,71.3c-15.7,7-30.8,14.2-45.5,21.6c-29.7,11.7-57.9,27.3-84.7,46.7c-6.5,4.5-12.7,9.4-18.5,14.9
			c-1.2,1.1-2.4,2.3-3.5,3.5c-2.5,1.9-5,3.7-7.5,5.6c-45.1,34.3-78.4,71.8-99.8,112.5c-19.6,36.4-23.3,74.3-10.9,113.6
			c8,24,19.9,45.9,35.9,65.7c16,19.7,33.5,37.9,52.3,54.7h40.5c-15.6-13.4-30.7-27.5-45.1-42.3c-19.8-20.2-35.7-43.3-47.8-69.2
			c-17-37.9-16.5-75.6,1.4-113.1c17.8-35.7,45.1-68.7,81.9-99c1.1-0.2,2.1-0.7,3.3-1.3c4-2.1,7.4-5.1,10.2-8.9
			c0.4-0.4,0.7-0.9,1.1-1.3c3.3-2.5,6.6-4.9,10.1-7.4c33.5-24,71.2-46.1,113-66.3c19.6-7.1,39.3-13.1,59.3-17.8
			c31.1-7.4,62.2-13.4,93.3-18c20.8-3.1,41.6-5.7,62.2-7.8c38.3-3.6,76.3-6,113.9-7.2c64.1-1.7,126.5,3.5,187.3,15.4
			c24.8,5,48.3,13.2,70.3,24.5c14.6,6.9,27,16.3,37.3,28.4c16.9,20.2,18.3,43.7,4.1,70.4c-7,13.4-15.5,25.5-25.6,36.5
			c-20.3,22.3-42.3,42.2-66.1,59.6c-28.5,20.9-57.7,40.3-87.7,58.1c-30,17.8-60.4,35-91.3,51.4c-49.4,26.2-99.5,50.6-150.1,73.2
			c-32.2,14.3-64.6,28.3-97.1,42h53.5c43.4-18.5,86.6-38,129.5-58.4c55.3-26.4,109.7-55.3,163.2-86.8c26-14.8,51.3-30.7,75.9-47.7
			s48.4-35.6,71.3-56c18.3-15.8,34.4-33.6,48.3-53.5c29.8-44.7,27.6-82.5-6.9-113.2c-15.6-13.4-33.3-23.7-53.2-31
			c-18.1-7.3-36.8-13-56-17.1c-19.2-4.1-38.7-7.4-58.3-9.8c-38-4.5-76.3-6.4-114.8-5.8c-38.5,0.6-77.2,2.6-116.2,6
			c-7.8,0.8-15.6,1.6-23.2,2.4l-0.9,0.1c-37.2,4.1-74.2,9.4-111.1,15.8c52.5-19.2,107.2-36.2,164-50.8C765,66.8,838.3,51.4,910.2,40
			s137.5-19,196.8-22.8c59.2-3.8,107-3.7,143.2,0.1c21.7,2.7,43.4,6.2,65,10.5s42.8,10.7,63.5,19c9.4,3.6,18.2,8.1,26.4,13.3
			c8.2,5.2,14.7,12.8,19.5,22.8c1.8,3.6,4.4,5.9,7.8,6.8c3.4,0.9,6.7,0.3,10-1.7C1447.7,84.1,1449.5,78.8,1447.7,72.4z"/>
		<path d="M1189,804.3c-16.2-11.4-119.1-33-308.5-64.9c-53.7-9.9-104.5-19-152.2-27.4H627.5c96.2,16.4,192,33.9,287.3,52.6
			C1113.8,802.4,1205.2,815.6,1189,804.3z"/>
		<path d="M618.2,840c-3.1-2.2-6.1-4.5-9-6.9c-31.4-24.9-63.3-49.4-95.7-73.6c-21.8-16-43.6-31.9-65.3-47.6h-44.3
			c3.9,2.9,7.9,5.7,11.8,8.6c51.2,35.8,101.4,73.1,150.5,111.8c19.8,15.7,38.6,32,56.6,48.9c16.9,15.9,25.1,28.5,24.5,37.5
			c-0.7,9.1-6.9,15.8-18.8,20.2c-11.9,4.4-26.4,7-43.5,7.9s-33.8,1-50.1,0.4s-29.1-1.5-38.5-2.6c-2.1-0.1-3.8-0.1-5.2,0.1
			c-0.7-0.3-1.7-0.3-3.1-0.2c-7.3-0.4-18.4-1.3-33.3-2.9c-14.9-1.6-29.9-4.3-44.9-8.2c-15-3.9-26.4-9.4-34.2-16.4
			s-8.4-16.1-1.6-27.2c15.8-23.1,36.4-39.6,61.7-49.4c25.4-9.9,51-9.9,77-0.1c3.6,1.7,7.5,3,11.5,4c4.2,1,7.5-0.4,10-4.1
			c1-2.3,1.1-4.4,0.3-6.2c-0.8-1.8-2.1-3.1-3.9-3.9c-0.5-0.4-1.1-0.8-1.8-1c-6.7-3.4-13.6-6-20.7-7.8c-36.8-7.6-71.9-2.9-105.4,14.1
			c-23.2,11.1-42.2,26.9-57,47.5c-13.6,20-10.6,37.4,8.9,52.1c9.7,7.1,25.8,13.2,48.2,18.5s47.8,9.2,76.3,11.7
			c28.4,2.5,56.5,3.1,84.2,1.8c27.7-1.3,51.7-5,72.1-11.1c20.4-6,33.7-14.9,40-26.7c6.3-11.8,2.4-27.1-11.7-45.8
			C650.3,867.3,635.1,852.8,618.2,840z"/>
	</g>
</g>
</svg>
